<!-- Generated by IcoMoon.io -->
<svg version="1.1" xmlns="http://www.w3.org/2000/svg" width="48" height="48" viewBox="0 0 48 48">
<title>loupe</title>
<path d="M31.756 28.358c2.26-2.956 3.585-6.661 3.585-10.67 0-9.753-7.918-17.688-17.671-17.688-9.736 0-17.671 7.935-17.671 17.688 0 9.736 7.935 17.671 17.671 17.671 4.010 0 7.714-1.342 10.67-3.602l16.261 16.244 3.398-3.398-16.244-16.244zM4.808 17.688c0-7.102 5.777-12.862 12.862-12.862 7.102 0 12.862 5.76 12.862 12.862 0 7.085-5.76 12.845-12.862 12.845-7.085 0-12.862-5.76-12.862-12.845z"></path>
</svg>
