<!-- Generated by IcoMoon.io -->
<svg version="1.1" xmlns="http://www.w3.org/2000/svg" width="48" height="48" viewBox="0 0 48 48">
<title>heart</title>
<path d="M23.594 45.175l-0.89-0.53c-0.31-0.185-7.668-4.587-13.049-9.612-6.406-5.985-9.655-12.141-9.655-18.303 0-7.334 5.971-13.301 13.311-13.301 4.034 0 7.773 1.807 10.27 4.846 2.499-3.039 6.238-4.846 10.272-4.846 7.339 0 13.31 5.967 13.31 13.301 0 6.516-3.074 12.336-9.674 18.321-5.438 4.93-12.706 9.396-13.013 9.585l-0.883 0.54zM13.311 6.857c-5.45 0-9.883 4.428-9.883 9.873 0 5.174 2.883 10.488 8.568 15.797 4.051 3.783 9.47 7.308 11.575 8.626 2.097-1.341 7.497-4.91 11.616-8.643 5.832-5.287 8.547-10.301 8.547-15.78 0-5.445-4.433-9.873-9.881-9.873-3.684 0-7.037 2.031-8.753 5.301l-1.519 2.894-1.519-2.894c-1.714-3.269-5.067-5.301-8.751-5.301z"></path>
</svg>
