<?xml version="1.0" encoding="utf-8"?>
<!-- Generator: Adobe Illustrator 21.1.0, SVG Export Plug-In . SVG Version: 6.00 Build 0)  -->
<svg version="1.1" id="Layer_1" xmlns="http://www.w3.org/2000/svg" xmlns:xlink="http://www.w3.org/1999/xlink" x="0px" y="0px"
	 viewBox="0 0 129 48" style="enable-background:new 0 0 129 48;" xml:space="preserve">
<title>coop-opskrifter-logo</title>
<path d="M67.5,5.3c-5.1,0-9.1,2.3-10.2,6.4c-1.1-4.1-5.1-6.4-10.2-6.4c-4.6,0-8.4,1.9-9.8,5.3c-1.4-3.4-5.2-5.3-9.8-5.3
	c-5.9,0-10.4,3.1-10.4,8.5c0,0,0,0.1,0,0.1c0,1.3,0.3,2.5,0.8,3.6c-0.1,0-0.2,0-0.2,0c-0.2,0.1-0.5,0.2-0.8,0.3
	c-0.8,0.2-1.8,0.4-2.7,0.4c-2.7,0-5.1-1.7-5.1-4.3c0-2.8,2.1-4.5,4.8-4.5c0,0,0.1,0,0.1,0c0.7,0,1.5,0.1,2.2,0.3
	c0.5-1.3,1.3-2.4,2.4-3.3c-0.2-0.1-0.3-0.2-0.5-0.2c-1.4-0.6-3-0.9-4.9-0.9c-5.9,0-10.4,3.1-10.4,8.5c0,5.4,4.5,8.5,10.4,8.5
	c1.7,0,3.4-0.2,4.9-0.7c0.9-0.3,1.9-0.7,2.8-1.2c1.7,1.2,4.1,1.8,6.7,1.8c4.6,0,8.4-1.9,9.8-5.3c1.4,3.4,5.2,5.3,9.8,5.3
	c4.7,0,8.5-2,9.9-5.5v9.9h6.4v-4.9c1.2,0.4,2.6,0.6,4,0.6c0,0,0,0,0.1,0c5.9,0,10.4-3.1,10.4-8.5C78,8.5,73.5,5.3,67.5,5.3L67.5,5.3
	z M31.1,17.4c-0.7,1-1.9,1.6-3.5,1.6h0c-1.6,0-2.7-0.6-3.5-1.6S23,15.2,23,13.9s0.3-2.6,1-3.5s1.9-1.6,3.5-1.6s2.7,0.6,3.5,1.6
	s1,2.2,1,3.5S31.8,16.4,31.1,17.4L31.1,17.4z M50.7,17.4c-0.7,1-1.9,1.6-3.4,1.6h0c-1.6,0-2.7-0.6-3.5-1.6s-1-2.2-1-3.5
	s0.3-2.6,1-3.5s1.9-1.6,3.5-1.6s2.7,0.6,3.5,1.6s1,2.2,1,3.5S51.4,16.4,50.7,17.4L50.7,17.4z M71,17.4c-0.7,0.9-1.9,1.6-3.5,1.6h0
	c-1.6,0-2.7-0.6-3.5-1.6c-0.7-1-1-2.2-1-3.5s0.3-2.6,1-3.5c0.7-1,1.9-1.6,3.5-1.6s2.7,0.6,3.5,1.6s1,2.2,1.1,3.5S71.7,16.4,71,17.4z
	 M91.7,10.4c0.7-0.9,1.9-1.6,3.5-1.6h0c1.5,0,2.7,0.6,3.5,1.6s1,2.2,1,3.5s-0.3,2.6-1,3.5S96.7,19,95.1,19s-2.7-0.6-3.5-1.6
	s-1-2.2-1-3.5S90.9,11.3,91.7,10.4z M105.6,1h-6.4v5.1c-1.3-0.5-2.7-0.8-4.3-0.8c-5.7,0-10.2,3.1-10.2,8.5c0,5.4,4.5,8.6,10.4,8.6
	s10.4-2.9,10.4-9.3L105.6,1L105.6,1z M78.5,19.6L78.5,19.6c0,1.6,1.3,2.9,2.9,2.9s2.9-1.3,2.9-2.9c0-1.6-1.3-2.9-2.9-2.9
	c0,0,0,0,0,0C79.8,16.7,78.5,18,78.5,19.6L78.5,19.6z M114.1,1h-6.3v21.1h6.3V1z M114.1,13.3l5.7-7.5h6l-5.7,7.1l6.5,9.3h-6.8
	L114.1,13.3z"/>
<path d="M16.1,47c-2.7,0-4.4-1.5-4.4-4.9v-1.3c0-3.5,1.7-4.9,4.4-4.9s4.4,1.5,4.4,4.9v1.3C20.5,45.5,18.8,47,16.1,47z M18.5,40.8
	c0-2.4-0.9-3.2-2.4-3.2s-2.4,0.8-2.4,3.2v1.3c0,2.4,0.9,3.2,2.4,3.2s2.4-0.8,2.4-3.2V40.8z"/>
<path d="M23.3,46.8v-1.5l0.7-0.1v-7.5l-0.7-0.1v-1.5c1.3-0.1,2.6-0.1,3.9-0.1c2.6,0,4.7,0.5,4.7,3.4v0.2c0,2.9-2.1,3.4-4.6,3.4H26
	v2.3l0.7,0.1v1.5L23.3,46.8z M29.9,39.4c0-1.4-0.9-1.7-2.6-1.7H26v3.5c0.4,0,0.8,0,1.3,0c1.8,0,2.6-0.3,2.6-1.7V39.4z"/>
<path d="M38.4,47c-1.4,0-2.8-0.2-3.4-0.3v-2.4h1.3l0.1,1c0.6,0,0.9,0.1,1.9,0.1c1.1,0,1.8-0.4,1.8-1.4c0-0.7-0.3-1.1-1.4-1.5
	l-1.7-0.7c-1.5-0.7-2.4-1.4-2.4-3c0-2,1.3-2.8,3.8-2.8c1.1,0,2.2,0.1,3.3,0.4l-0.1,2.3h-1.3l-0.2-0.9c-0.5,0-1.1,0-1.6,0
	c-1.3,0-2,0.3-2,1.1c0,0.6,0.3,1,1.4,1.4l1.7,0.7c1.6,0.7,2.4,1.5,2.4,3.1C42.2,46,40.8,47,38.4,47L38.4,47z"/>
<path d="M45.3,46.8v-1.5l0.7-0.1v-7.5l-0.7-0.1v-1.5h3.5v1.5L48,37.7v3.4l4.1-5h2.1v1.5l-0.8,0.1l-3.3,3.7l3.3,3.8l0.8,0.1v1.5H52
	l-4-5v3.4l0.7,0.1v1.5L45.3,46.8z"/>
<path d="M57.3,46.8v-1.5l0.7-0.1v-7.5l-0.7-0.1v-1.5c1.2,0,2.5-0.1,3.8-0.1c2.6,0,4.7,0.5,4.7,3.3v0.1c0,1.6-0.7,2.5-1.8,2.9
	l1.7,2.8l0.8,0.1v1.5h-2.3L62,42.8c-0.2,0-0.5,0-0.8,0H60v2.3l0.7,0.1v1.5L57.3,46.8z M63.9,39.4c0-1.4-0.9-1.7-2.7-1.7
	c-0.4,0-0.8,0-1.2,0v3.5c0.4,0,0.8,0,1.2,0C63.1,41.3,63.9,40.8,63.9,39.4L63.9,39.4z"/>
<path d="M69.5,46.8v-1.5l0.7-0.1v-7.5l-0.7-0.1v-1.5H73v1.5l-0.7,0.1v7.5l0.7,0.1v1.5L69.5,46.8z"/>
<path d="M78.8,42.1v3.1l0.7,0.1v1.5h-3.5v-1.5l0.7-0.1v-7.5l-0.7-0.1v-1.5h7.5v2.5h-1.3l-0.1-0.8h-3.3v2.7h4.5v1.6H78.8z"/>
<path d="M93.7,38.6l-0.1-0.8h-1.8v7.5l0.7,0.1v1.5H89v-1.5l0.7-0.1v-7.5H88l-0.1,0.8h-1.3v-2.5H95v2.5L93.7,38.6z"/>
<path d="M97.9,46.8v-1.5l0.7-0.1v-7.5l-0.7-0.1v-1.5h7.5v2.5h-1.3l-0.1-0.8h-3.3v2.7h4.5v1.6h-4.5v3.1h3.3l0.1-0.8h1.3v2.5
	L97.9,46.8z"/>
<path d="M108.6,46.8v-1.5l0.7-0.1v-7.5l-0.7-0.1v-1.5c1.2,0,2.5-0.1,3.8-0.1c2.6,0,4.7,0.5,4.7,3.3v0.1c0,1.6-0.7,2.5-1.8,2.9
	l1.7,2.8l0.8,0.1v1.5h-2.3l-2.3-3.9c-0.2,0-0.5,0-0.8,0h-1.2v2.3l0.7,0.1v1.5L108.6,46.8z M115.2,39.4c0-1.4-0.9-1.7-2.7-1.7
	c-0.4,0-0.8,0-1.2,0v3.5c0.4,0,0.8,0,1.2,0C114.4,41.2,115.2,40.8,115.2,39.4L115.2,39.4z"/>
</svg>
